<svg width="1296" height="154" viewBox="0 0 1296 154" fill="none" xmlns="http://www.w3.org/2000/svg">
<path d="M19.4688 9.70508V11.085H12.543V9.70508H19.4688ZM12.8066 4.20312V17H11.1104V4.20312H12.8066ZM20.9453 4.20312V17H19.2578V4.20312H20.9453ZM27.6602 17.1758C26.998 17.1758 26.3975 17.0645 25.8584 16.8418C25.3252 16.6133 24.8652 16.2939 24.4785 15.8838C24.0977 15.4736 23.8047 14.9873 23.5996 14.4248C23.3945 13.8623 23.292 13.2471 23.292 12.5791V12.21C23.292 11.4365 23.4062 10.748 23.6348 10.1445C23.8633 9.53516 24.1738 9.01953 24.5664 8.59766C24.959 8.17578 25.4043 7.85645 25.9023 7.63965C26.4004 7.42285 26.916 7.31445 27.4492 7.31445C28.1289 7.31445 28.7148 7.43164 29.207 7.66602C29.7051 7.90039 30.1123 8.22852 30.4287 8.65039C30.7451 9.06641 30.9795 9.55859 31.1318 10.127C31.2842 10.6895 31.3604 11.3047 31.3604 11.9727V12.7021H24.2588V11.375H29.7344V11.252C29.7109 10.8301 29.623 10.4199 29.4707 10.0215C29.3242 9.62305 29.0898 9.29492 28.7676 9.03711C28.4453 8.7793 28.0059 8.65039 27.4492 8.65039C27.0801 8.65039 26.7402 8.72949 26.4297 8.8877C26.1191 9.04004 25.8525 9.26855 25.6299 9.57324C25.4072 9.87793 25.2344 10.25 25.1113 10.6895C24.9883 11.1289 24.9268 11.6357 24.9268 12.21V12.5791C24.9268 13.0303 24.9883 13.4551 25.1113 13.8535C25.2402 14.2461 25.4248 14.5918 25.665 14.8906C25.9111 15.1895 26.207 15.4238 26.5527 15.5938C26.9043 15.7637 27.3027 15.8486 27.748 15.8486C28.3223 15.8486 28.8086 15.7314 29.207 15.4971C29.6055 15.2627 29.9541 14.9492 30.2529 14.5566L31.2373 15.3389C31.0322 15.6494 30.7715 15.9453 30.4551 16.2266C30.1387 16.5078 29.749 16.7363 29.2861 16.9121C28.8291 17.0879 28.2871 17.1758 27.6602 17.1758ZM35.0254 3.5V17H33.3906V3.5H35.0254ZM39.4023 3.5V17H37.7676V3.5H39.4023ZM41.582 12.3506V12.1484C41.582 11.4629 41.6816 10.8271 41.8809 10.2412C42.0801 9.64941 42.3672 9.13672 42.7422 8.70312C43.1172 8.26367 43.5713 7.92383 44.1045 7.68359C44.6377 7.4375 45.2354 7.31445 45.8975 7.31445C46.5654 7.31445 47.166 7.4375 47.6992 7.68359C48.2383 7.92383 48.6953 8.26367 49.0703 8.70312C49.4512 9.13672 49.7412 9.64941 49.9404 10.2412C50.1396 10.8271 50.2393 11.4629 50.2393 12.1484V12.3506C50.2393 13.0361 50.1396 13.6719 49.9404 14.2578C49.7412 14.8438 49.4512 15.3564 49.0703 15.7959C48.6953 16.2295 48.2412 16.5693 47.708 16.8154C47.1807 17.0557 46.583 17.1758 45.915 17.1758C45.2471 17.1758 44.6465 17.0557 44.1133 16.8154C43.5801 16.5693 43.123 16.2295 42.7422 15.7959C42.3672 15.3564 42.0801 14.8438 41.8809 14.2578C41.6816 13.6719 41.582 13.0361 41.582 12.3506ZM43.208 12.1484V12.3506C43.208 12.8252 43.2637 13.2734 43.375 13.6953C43.4863 14.1113 43.6533 14.4805 43.876 14.8027C44.1045 15.125 44.3887 15.3799 44.7285 15.5674C45.0684 15.749 45.4639 15.8398 45.915 15.8398C46.3604 15.8398 46.75 15.749 47.084 15.5674C47.4238 15.3799 47.7051 15.125 47.9277 14.8027C48.1504 14.4805 48.3174 14.1113 48.4287 13.6953C48.5459 13.2734 48.6045 12.8252 48.6045 12.3506V12.1484C48.6045 11.6797 48.5459 11.2373 48.4287 10.8213C48.3174 10.3994 48.1475 10.0273 47.9189 9.70508C47.6963 9.37695 47.415 9.11914 47.0752 8.93164C46.7412 8.74414 46.3486 8.65039 45.8975 8.65039C45.4521 8.65039 45.0596 8.74414 44.7197 8.93164C44.3857 9.11914 44.1045 9.37695 43.876 9.70508C43.6533 10.0273 43.4863 10.3994 43.375 10.8213C43.2637 11.2373 43.208 11.6797 43.208 12.1484ZM53.7549 15.0664V16.376C53.7549 16.9092 53.6201 17.4717 53.3506 18.0635C53.0811 18.6611 52.7031 19.1592 52.2168 19.5576L51.2939 18.916C51.4814 18.6582 51.6396 18.3945 51.7686 18.125C51.8975 17.8613 51.9941 17.5859 52.0586 17.2988C52.1289 17.0176 52.1641 16.7188 52.1641 16.4023V15.0664H53.7549ZM62.3594 4.20312V17H60.6631V4.20312H62.3594ZM75.2705 15.374V10.4785C75.2705 10.1035 75.1943 9.77832 75.042 9.50293C74.8955 9.22168 74.6729 9.00488 74.374 8.85254C74.0752 8.7002 73.7061 8.62402 73.2666 8.62402C72.8564 8.62402 72.4961 8.69434 72.1855 8.83496C71.8809 8.97559 71.6406 9.16016 71.4648 9.38867C71.2949 9.61719 71.21 9.86328 71.21 10.127H69.584C69.584 9.78711 69.6719 9.4502 69.8477 9.11621C70.0234 8.78223 70.2754 8.48047 70.6035 8.21094C70.9375 7.93555 71.3359 7.71875 71.7988 7.56055C72.2676 7.39648 72.7891 7.31445 73.3633 7.31445C74.0547 7.31445 74.6641 7.43164 75.1914 7.66602C75.7246 7.90039 76.1406 8.25488 76.4395 8.72949C76.7441 9.19824 76.8965 9.78711 76.8965 10.4961V14.9258C76.8965 15.2422 76.9229 15.5791 76.9756 15.9365C77.0342 16.2939 77.1191 16.6016 77.2305 16.8594V17H75.5342C75.4521 16.8125 75.3877 16.5635 75.3408 16.2529C75.2939 15.9365 75.2705 15.6436 75.2705 15.374ZM75.5518 11.2344L75.5693 12.377H73.9258C73.4629 12.377 73.0498 12.415 72.6865 12.4912C72.3232 12.5615 72.0186 12.6699 71.7725 12.8164C71.5264 12.9629 71.3389 13.1475 71.21 13.3701C71.0811 13.5869 71.0166 13.8418 71.0166 14.1348C71.0166 14.4336 71.084 14.7061 71.2188 14.9521C71.3535 15.1982 71.5557 15.3945 71.8252 15.541C72.1006 15.6816 72.4375 15.752 72.8359 15.752C73.334 15.752 73.7734 15.6465 74.1543 15.4355C74.5352 15.2246 74.8369 14.9668 75.0596 14.6621C75.2881 14.3574 75.4111 14.0615 75.4287 13.7744L76.123 14.5566C76.082 14.8027 75.9707 15.0752 75.7891 15.374C75.6074 15.6729 75.3643 15.96 75.0596 16.2354C74.7607 16.5049 74.4033 16.7305 73.9873 16.9121C73.5771 17.0879 73.1143 17.1758 72.5986 17.1758C71.9541 17.1758 71.3887 17.0498 70.9023 16.7979C70.4219 16.5459 70.0469 16.209 69.7773 15.7871C69.5137 15.3594 69.3818 14.8818 69.3818 14.3545C69.3818 13.8447 69.4814 13.3965 69.6807 13.0098C69.8799 12.6172 70.167 12.292 70.542 12.0342C70.917 11.7705 71.3682 11.5713 71.8955 11.4365C72.4229 11.3018 73.0117 11.2344 73.6621 11.2344H75.5518ZM81.0713 9.37988V17H79.4365V7.49023H80.9834L81.0713 9.37988ZM80.7373 11.8848L79.9814 11.8584C79.9873 11.208 80.0723 10.6074 80.2363 10.0566C80.4004 9.5 80.6436 9.0166 80.9658 8.60645C81.2881 8.19629 81.6895 7.87988 82.1699 7.65723C82.6504 7.42871 83.207 7.31445 83.8398 7.31445C84.2852 7.31445 84.6953 7.37891 85.0703 7.50781C85.4453 7.63086 85.7705 7.82715 86.0459 8.09668C86.3213 8.36621 86.5352 8.71191 86.6875 9.13379C86.8398 9.55566 86.916 10.0654 86.916 10.6631V17H85.29V10.7422C85.29 10.2441 85.2051 9.8457 85.0352 9.54688C84.8711 9.24805 84.6367 9.03125 84.332 8.89648C84.0273 8.75586 83.6699 8.68555 83.2598 8.68555C82.7793 8.68555 82.3779 8.77051 82.0557 8.94043C81.7334 9.11035 81.4756 9.34473 81.2822 9.64355C81.0889 9.94238 80.9482 10.2852 80.8604 10.6719C80.7783 11.0527 80.7373 11.457 80.7373 11.8848ZM86.8984 10.9883L85.8086 11.3223C85.8145 10.8008 85.8994 10.2998 86.0635 9.81934C86.2334 9.33887 86.4766 8.91113 86.793 8.53613C87.1152 8.16113 87.5107 7.86523 87.9795 7.64844C88.4482 7.42578 88.9844 7.31445 89.5879 7.31445C90.0977 7.31445 90.5488 7.38184 90.9414 7.5166C91.3398 7.65137 91.6738 7.85938 91.9434 8.14062C92.2188 8.41602 92.4268 8.77051 92.5674 9.2041C92.708 9.6377 92.7783 10.1533 92.7783 10.751V17H91.1436V10.7334C91.1436 10.2002 91.0586 9.78711 90.8887 9.49414C90.7246 9.19531 90.4902 8.9873 90.1855 8.87012C89.8867 8.74707 89.5293 8.68555 89.1133 8.68555C88.7559 8.68555 88.4395 8.74707 88.1641 8.87012C87.8887 8.99316 87.6572 9.16309 87.4697 9.37988C87.2822 9.59082 87.1387 9.83398 87.0391 10.1094C86.9453 10.3848 86.8984 10.6777 86.8984 10.9883Z" fill="#333333"/>
<path d="M76.8175 39.3H95.1995L62.4395 103H40.0535L7.29353 39.3H25.6755L51.2465 90.897L76.8175 39.3ZM141.786 103L134.961 89.441H96.8318L90.0068 103H71.9888L104.84 39.3H126.953L159.895 103H141.786ZM102.929 77.247H128.864L115.942 51.403L102.929 77.247ZM180.19 89.259H229.33V103H163.81V39.3H180.19V89.259ZM303.044 52.313H252.084V65.235H303.044V77.065H252.084V89.987H303.044V103H235.704V39.3H303.044V52.313ZM374.721 39.3H391.101V103H368.806L325.399 55.225V103H309.019V39.3H331.223L374.721 87.166V39.3ZM474.792 39.3V53.041H443.852V103H427.472V53.041H396.532V39.3H474.792ZM496.557 39.3V103H480.177V39.3H496.557ZM569.518 39.3H585.898V103H563.603L520.196 55.225V103H503.816V39.3H526.02L569.518 87.166V39.3ZM685.389 39.3C699.858 39.3 709.777 48.491 709.777 62.687C709.777 76.883 699.858 85.983 685.389 85.983H651.719V103H635.339V39.3H685.389ZM680.839 72.242C685.753 72.242 693.397 72.242 693.397 62.687C693.397 53.041 685.753 53.041 680.839 53.041H651.719V72.242H680.839ZM783.015 52.313H732.055V65.235H783.015V77.065H732.055V89.987H783.015V103H715.675V39.3H783.015V52.313ZM787.547 71.059C787.547 49.947 799.559 38.39 827.587 38.39C852.976 38.39 865.716 48.036 867.354 66.418H850.701C849.154 56.135 841.237 52.131 827.587 52.131C810.934 52.131 803.927 58.046 803.927 71.059C803.927 84.163 811.025 90.169 827.587 90.169C841.146 90.169 849.154 86.074 850.701 75.7H867.354C865.716 94.173 852.976 103.91 827.587 103.91C799.559 103.91 787.547 92.262 787.547 71.059ZM912.456 103.91C884.428 103.91 872.416 92.262 872.416 71.059C872.416 49.947 884.428 38.39 912.456 38.39C940.393 38.39 952.496 50.038 952.496 71.059C952.496 92.171 940.393 103.91 912.456 103.91ZM912.456 90.169C929.473 90.169 936.116 84.072 936.116 71.059C936.116 58.137 929.564 52.131 912.456 52.131C895.348 52.131 888.796 58.046 888.796 71.059C888.796 84.163 895.439 90.169 912.456 90.169ZM1032.9 62.687C1032.9 73.061 1027.62 80.705 1019.07 84.072L1030.81 103H1011.51L1001.23 85.983H974.84V103H958.46V39.3H1008.51C1022.98 39.3 1032.9 48.491 1032.9 62.687ZM974.84 53.041V72.242H1003.96C1008.87 72.242 1016.52 72.242 1016.52 62.687C1016.52 53.041 1008.87 53.041 1003.96 53.041H974.84ZM1104.04 103L1097.21 89.441H1059.09L1052.26 103H1034.24L1067.09 39.3H1089.21L1122.15 103H1104.04ZM1065.18 77.247H1091.12L1078.2 51.403L1065.18 77.247ZM1142.44 89.259H1191.58V103H1126.06V39.3H1142.44V89.259ZM1265.3 52.313H1214.34V65.235H1265.3V77.065H1214.34V89.987H1265.3V103H1197.96V39.3H1265.3V52.313ZM1272.25 90.806H1287.81V103H1272.25V90.806Z" fill="#333333"/>
<path d="M539.416 142.981H535.997V141.602H539.416C540.078 141.602 540.614 141.496 541.024 141.285C541.434 141.074 541.733 140.781 541.921 140.406C542.114 140.031 542.211 139.604 542.211 139.123C542.211 138.684 542.114 138.271 541.921 137.884C541.733 137.497 541.434 137.187 541.024 136.952C540.614 136.712 540.078 136.592 539.416 136.592H536.392V148H534.696V135.203H539.416C540.383 135.203 541.2 135.37 541.868 135.704C542.536 136.038 543.043 136.501 543.388 137.093C543.734 137.679 543.907 138.35 543.907 139.105C543.907 139.926 543.734 140.626 543.388 141.206C543.043 141.786 542.536 142.229 541.868 142.533C541.2 142.832 540.383 142.981 539.416 142.981ZM572.824 141.197V142.006C572.824 142.967 572.704 143.828 572.464 144.59C572.223 145.352 571.878 145.999 571.427 146.532C570.975 147.065 570.433 147.473 569.801 147.754C569.174 148.035 568.47 148.176 567.691 148.176C566.935 148.176 566.241 148.035 565.608 147.754C564.981 147.473 564.436 147.065 563.973 146.532C563.516 145.999 563.162 145.352 562.91 144.59C562.658 143.828 562.532 142.967 562.532 142.006V141.197C562.532 140.236 562.655 139.378 562.901 138.622C563.153 137.86 563.508 137.213 563.965 136.68C564.422 136.141 564.964 135.73 565.591 135.449C566.223 135.168 566.918 135.027 567.674 135.027C568.453 135.027 569.156 135.168 569.783 135.449C570.416 135.73 570.958 136.141 571.409 136.68C571.866 137.213 572.215 137.86 572.455 138.622C572.701 139.378 572.824 140.236 572.824 141.197ZM571.145 142.006V141.18C571.145 140.418 571.066 139.744 570.908 139.158C570.756 138.572 570.53 138.08 570.231 137.682C569.932 137.283 569.566 136.981 569.133 136.776C568.705 136.571 568.219 136.469 567.674 136.469C567.146 136.469 566.669 136.571 566.241 136.776C565.819 136.981 565.456 137.283 565.151 137.682C564.852 138.08 564.621 138.572 564.457 139.158C564.293 139.744 564.211 140.418 564.211 141.18V142.006C564.211 142.773 564.293 143.453 564.457 144.045C564.621 144.631 564.855 145.126 565.16 145.53C565.47 145.929 565.837 146.23 566.259 146.436C566.686 146.641 567.164 146.743 567.691 146.743C568.242 146.743 568.731 146.641 569.159 146.436C569.587 146.23 569.947 145.929 570.24 145.53C570.539 145.126 570.764 144.631 570.917 144.045C571.069 143.453 571.145 142.773 571.145 142.006ZM592.284 135.203H596.52C597.481 135.203 598.293 135.35 598.955 135.643C599.623 135.936 600.13 136.369 600.475 136.943C600.827 137.512 601.003 138.212 601.003 139.044C601.003 139.63 600.883 140.166 600.642 140.652C600.408 141.133 600.068 141.543 599.623 141.883C599.183 142.217 598.656 142.466 598.041 142.63L597.566 142.814H593.585L593.567 141.435H596.573C597.182 141.435 597.689 141.329 598.094 141.118C598.498 140.901 598.803 140.611 599.008 140.248C599.213 139.885 599.315 139.483 599.315 139.044C599.315 138.552 599.219 138.121 599.025 137.752C598.832 137.383 598.527 137.099 598.111 136.899C597.701 136.694 597.171 136.592 596.52 136.592H593.98V148H592.284V135.203ZM599.764 148L596.652 142.199L598.419 142.19L601.574 147.895V148H599.764ZM624.321 135.203V148H622.651V135.203H624.321ZM628.435 135.203V136.592H618.547V135.203H628.435ZM648.949 135.203V148H647.253V135.203H648.949ZM654.311 140.96V142.349H648.58V140.96H654.311ZM655.181 135.203V136.592H648.58V135.203H655.181ZM683.975 141.197V142.006C683.975 142.967 683.855 143.828 683.614 144.59C683.374 145.352 683.028 145.999 682.577 146.532C682.126 147.065 681.584 147.473 680.951 147.754C680.324 148.035 679.621 148.176 678.842 148.176C678.086 148.176 677.392 148.035 676.759 147.754C676.132 147.473 675.587 147.065 675.124 146.532C674.667 145.999 674.313 145.352 674.061 144.59C673.809 143.828 673.683 142.967 673.683 142.006V141.197C673.683 140.236 673.806 139.378 674.052 138.622C674.304 137.86 674.658 137.213 675.115 136.68C675.572 136.141 676.114 135.73 676.741 135.449C677.374 135.168 678.068 135.027 678.824 135.027C679.604 135.027 680.307 135.168 680.934 135.449C681.567 135.73 682.109 136.141 682.56 136.68C683.017 137.213 683.365 137.86 683.606 138.622C683.852 139.378 683.975 140.236 683.975 141.197ZM682.296 142.006V141.18C682.296 140.418 682.217 139.744 682.059 139.158C681.906 138.572 681.681 138.08 681.382 137.682C681.083 137.283 680.717 136.981 680.283 136.776C679.856 136.571 679.369 136.469 678.824 136.469C678.297 136.469 677.819 136.571 677.392 136.776C676.97 136.981 676.607 137.283 676.302 137.682C676.003 138.08 675.772 138.572 675.608 139.158C675.443 139.744 675.361 140.418 675.361 141.18V142.006C675.361 142.773 675.443 143.453 675.608 144.045C675.772 144.631 676.006 145.126 676.311 145.53C676.621 145.929 676.987 146.23 677.409 146.436C677.837 146.641 678.315 146.743 678.842 146.743C679.393 146.743 679.882 146.641 680.31 146.436C680.737 146.23 681.098 145.929 681.391 145.53C681.69 145.126 681.915 144.631 682.068 144.045C682.22 143.453 682.296 142.773 682.296 142.006ZM711.195 146.62V148H704.797V146.62H711.195ZM705.131 135.203V148H703.435V135.203H705.131ZM731.877 135.203V148H730.181V135.203H731.877ZM761.735 141.197V142.006C761.735 142.967 761.615 143.828 761.374 144.59C761.134 145.352 760.788 145.999 760.337 146.532C759.886 147.065 759.344 147.473 758.711 147.754C758.084 148.035 757.381 148.176 756.602 148.176C755.846 148.176 755.152 148.035 754.519 147.754C753.892 147.473 753.347 147.065 752.884 146.532C752.427 145.999 752.073 145.352 751.821 144.59C751.569 143.828 751.443 142.967 751.443 142.006V141.197C751.443 140.236 751.566 139.378 751.812 138.622C752.064 137.86 752.418 137.213 752.875 136.68C753.332 136.141 753.874 135.73 754.501 135.449C755.134 135.168 755.828 135.027 756.584 135.027C757.364 135.027 758.067 135.168 758.694 135.449C759.326 135.73 759.868 136.141 760.32 136.68C760.777 137.213 761.125 137.86 761.366 138.622C761.612 139.378 761.735 140.236 761.735 141.197ZM760.056 142.006V141.18C760.056 140.418 759.977 139.744 759.819 139.158C759.666 138.572 759.441 138.08 759.142 137.682C758.843 137.283 758.477 136.981 758.043 136.776C757.616 136.571 757.129 136.469 756.584 136.469C756.057 136.469 755.579 136.571 755.152 136.776C754.73 136.981 754.367 137.283 754.062 137.682C753.763 138.08 753.532 138.572 753.367 139.158C753.203 139.744 753.121 140.418 753.121 141.18V142.006C753.121 142.773 753.203 143.453 753.367 144.045C753.532 144.631 753.766 145.126 754.071 145.53C754.381 145.929 754.747 146.23 755.169 146.436C755.597 146.641 756.075 146.743 756.602 146.743C757.153 146.743 757.642 146.641 758.07 146.436C758.497 146.23 758.858 145.929 759.151 145.53C759.45 145.126 759.675 144.631 759.827 144.045C759.98 143.453 760.056 142.773 760.056 142.006Z" fill="#0F6166"/>
</svg>
